# xmcd
#
# Track frame offsets:
#	150
#	17532
#	31457
#	42975
#	56910
#	76110
#	94215
#	106312
#	122752
#	138642
#	159975
#	171667
#
# Disc length: 2655 seconds
#
# Revision: 1
# Processed by: cddbd v1.5.1PL2 Copyright (c) Steve Scherf et al.
# Submitted via: audiograbber 1.83.01
#
DISCID=9e0a5d0c
DTITLE=Paco - Manufacturado en Cuba
DYEAR=2002
DGENRE=Latin
TTITLE0=Un cuento mas
TTITLE1=Solamente una vez
TTITLE2=Capullito de aleli
TTITLE3=Una rosa de Francia
TTITLE4=Amor de mis amores
TTITLE5=Noche Gitana
TTITLE6=Caminito
TTITLE7=Entre noche y dia
TTITLE8=No se porque te quiero
TTITLE9=Algo
TTITLE10=Eres la mariposa
TTITLE11=La bella Maria de mi alma
EXTD=
EXTT0=
EXTT1=
EXTT2=
EXTT3=
EXTT4=
EXTT5=
EXTT6=
EXTT7=
EXTT8=
EXTT9=
EXTT10=
EXTT11=
PLAYORDER=
